<?xml version="1.0" standalone="no"?>
<!DOCTYPE svg PUBLIC "-//W3C//DTD SVG 20010904//EN"
 "http://www.w3.org/TR/2001/REC-SVG-20010904/DTD/svg10.dtd">
<svg version="1.0" xmlns="http://www.w3.org/2000/svg"
 width="151.000000pt" height="151.000000pt" viewBox="0 0 151.000000 151.000000"
 preserveAspectRatio="xMidYMid meet">
<metadata>
Created by potrace 1.11, written by Peter Selinger 2001-2013
</metadata>
<g transform="translate(0.000000,151.000000) scale(0.100000,-0.100000)"
fill="#000000" stroke="none">
<path d="M635 1390 l-110 -110 -152 0 -153 0 0 -153 0 -152 -105 -105 c-58
-58 -105 -109 -105 -115 0 -6 47 -57 105 -115 l105 -105 0 -152 0 -153 152 0
153 0 110 -110 111 -111 109 111 109 110 155 0 156 0 -2 152 -2 152 109 110
109 111 -108 110 -109 110 1 153 2 152 -152 0 -151 0 -108 110 c-59 61 -110
110 -113 110 -4 0 -56 -49 -116 -110z m275 -131 c161 -49 285 -170 342 -337
32 -94 32 -240 0 -334 -47 -135 -143 -246 -266 -307 -81 -40 -144 -53 -246
-53 -414 2 -660 464 -434 818 125 197 369 283 604 213z"/>
<path d="M527 849 c-26 -15 -47 -63 -47 -108 0 -61 42 -104 101 -105 71 -1 79
5 79 69 l0 55 -45 0 c-33 0 -45 -4 -45 -15 0 -9 10 -15 26 -15 22 0 25 -4 22
-27 -2 -22 -9 -29 -29 -31 -39 -5 -73 41 -65 88 9 60 56 82 119 55 13 -5 17
-2 17 13 0 11 -7 23 -16 26 -25 9 -97 6 -117 -5z"/>
<path d="M870 750 c0 -103 1 -110 20 -110 16 0 20 7 20 34 0 31 4 35 33 41 48
11 67 32 67 76 0 49 -27 69 -92 69 l-48 0 0 -110z m81 70 c34 -19 18 -70 -23
-70 -14 0 -18 8 -18 40 0 41 8 47 41 30z"/>
<path d="M710 759 l21 -40 -20 -35 c-26 -43 -26 -44 -1 -44 12 0 25 10 32 25
6 14 14 25 18 25 4 0 12 -11 18 -25 7 -15 20 -25 32 -25 25 0 25 2 1 49 -20
37 -20 38 0 70 24 39 24 41 -1 41 -11 0 -25 -12 -34 -27 l-14 -28 -13 28 c-8
18 -20 27 -36 27 l-23 0 20 -41z"/>
</g>
</svg>
